<?xml version="1.0" encoding="utf-8"?>
<diagram name="Página-1" id="0">
	<mxGraphModel dx="1000" dy="1000" grid="1" gridSize="10" guides="1" tooltips="1" connect="1" arrows="1" fold="1" page="1" pageScale="1" pageWidth="850" pageHeight="1100" math="0" shadow="0">
		<root>
			<mxCell id="0"/>
			<mxCell id="1" parent="0"/>
			<mxCell id="2" value="Input
[batch, meters, seq_len, features]" style="rounded=1;whiteSpace=wrap;html=1;fillColor=#dae8fc;strokeColor=#6c8ebf;fontSize=12" vertex="1" parent="1">
				<mxGeometry x="120" y="40" width="160" height="40" as_="geometry"/>
			</mxCell>
			<mxCell id="3" value="Flatten" style="rounded=1;whiteSpace=wrap;html=1;fillColor=#dae8fc;strokeColor=#6c8ebf;fontSize=12" vertex="1" parent="1">
				<mxGeometry x="120" y="100" width="160" height="40" as_="geometry"/>
			</mxCell>
			<mxCell id="4" value="Linear → 512" style="rounded=1;whiteSpace=wrap;html=1;fillColor=#dae8fc;strokeColor=#6c8ebf;fontSize=12" vertex="1" parent="1">
				<mxGeometry x="120" y="160" width="160" height="40" as_="geometry"/>
			</mxCell>
			<mxCell id="5" value="ReLU + BN + Dropout" style="rounded=1;whiteSpace=wrap;html=1;fillColor=#dae8fc;strokeColor=#6c8ebf;fontSize=12" vertex="1" parent="1">
				<mxGeometry x="120" y="220" width="160" height="40" as_="geometry"/>
			</mxCell>
			<mxCell id="6" value="Linear → 256" style="rounded=1;whiteSpace=wrap;html=1;fillColor=#dae8fc;strokeColor=#6c8ebf;fontSize=12" vertex="1" parent="1">
				<mxGeometry x="120" y="280" width="160" height="40" as_="geometry"/>
			</mxCell>
			<mxCell id="7" value="ReLU + BN + Dropout" style="rounded=1;whiteSpace=wrap;html=1;fillColor=#dae8fc;strokeColor=#6c8ebf;fontSize=12" vertex="1" parent="1">
				<mxGeometry x="120" y="340" width="160" height="40" as_="geometry"/>
			</mxCell>
			<mxCell id="8" value="Linear → 128" style="rounded=1;whiteSpace=wrap;html=1;fillColor=#dae8fc;strokeColor=#6c8ebf;fontSize=12" vertex="1" parent="1">
				<mxGeometry x="120" y="400" width="160" height="40" as_="geometry"/>
			</mxCell>
			<mxCell id="9" value="ReLU + BN + Dropout" style="rounded=1;whiteSpace=wrap;html=1;fillColor=#dae8fc;strokeColor=#6c8ebf;fontSize=12" vertex="1" parent="1">
				<mxGeometry x="120" y="460" width="160" height="40" as_="geometry"/>
			</mxCell>
			<mxCell id="10" value="Linear → 1" style="rounded=1;whiteSpace=wrap;html=1;fillColor=#dae8fc;strokeColor=#6c8ebf;fontSize=12" vertex="1" parent="1">
				<mxGeometry x="120" y="520" width="160" height="40" as_="geometry"/>
			</mxCell>
			<mxCell id="11" value="Reshape
→ [batch, meters]" style="rounded=1;whiteSpace=wrap;html=1;fillColor=#dae8fc;strokeColor=#6c8ebf;fontSize=12" vertex="1" parent="1">
				<mxGeometry x="120" y="580" width="160" height="40" as_="geometry"/>
			</mxCell>
			<mxCell id="12" value="Output" style="rounded=1;whiteSpace=wrap;html=1;fillColor=#dae8fc;strokeColor=#6c8ebf;fontSize=12" vertex="1" parent="1">
				<mxGeometry x="120" y="640" width="160" height="40" as_="geometry"/>
			</mxCell>
		</root>
	</mxGraphModel>
</diagram>
